<?xml version="1.0" encoding="UTF-8"?>
<svg width="17px" height="31px" viewBox="0 0 17 31" version="1.1" xmlns="http://www.w3.org/2000/svg" xmlns:xlink="http://www.w3.org/1999/xlink">
    <!-- Generator: Sketch 42 (36781) - http://www.bohemiancoding.com/sketch -->
    <title>g4349</title>
    <desc>Created with Sketch.</desc>
    <defs></defs>
    <g id="Page-1" stroke="none" stroke-width="1" fill="none" fill-rule="evenodd" opacity="0.8">
        <g id="SVG" transform="translate(-952.000000, -1097.000000)" fill-rule="nonzero" fill="#FFFFFF">
            <g id="g4349" transform="translate(960.499994, 1112.897906) rotate(-90.000000) translate(-960.499994, -1112.897906) translate(945.396723, 1104.765376)">
                <g id="g4351">
                    <path d="M8.13253014,16.1617901 L22.0740104,16.1617901 C26.4888125,16.1617901 30.1032703,12.5731498 30.1032703,8.13253014 C30.1032703,3.69191051 26.51463,0.103270224 22.0740104,0.103270224 L8.13253014,0.103270224 C3.71772806,0.103270224 0.103270224,3.69191051 0.103270224,8.13253014 C0.103270224,12.5731498 3.71772806,16.1617901 8.13253014,16.1617901 Z M8.13253014,2.22030982 L22.0740104,2.22030982 C25.3270224,2.22030982 27.9862307,4.87951808 27.9862307,8.13253014 C27.9862307,11.3855422 25.3270224,14.0447505 22.0740104,14.0447505 L8.13253014,14.0447505 C4.87951808,14.0447505 2.22030982,11.3855422 2.22030982,8.13253014 C2.22030982,4.87951808 4.87951808,2.22030982 8.13253014,2.22030982 L8.13253014,2.22030982 Z" id="path4353"></path>
                    <path d="M8.13253014,12.5989673 C10.585198,12.5989673 12.5989673,10.585198 12.5989673,8.13253014 C12.5989673,5.67986232 10.585198,3.66609295 8.13253014,3.66609295 C5.67986232,3.66609295 3.66609295,5.67986232 3.66609295,8.13253014 C3.66609295,10.585198 5.67986232,12.5989673 8.13253014,12.5989673 Z M8.13253014,5.78313254 C9.42340794,5.78313254 10.4819277,6.84165234 10.4819277,8.13253014 C10.4819277,9.42340794 9.42340794,10.4819277 8.13253014,10.4819277 C6.84165234,10.4819277 5.78313254,9.42340794 5.78313254,8.13253014 C5.78313254,6.84165234 6.84165234,5.78313254 8.13253014,5.78313254 Z" id="path4355"></path>
                </g>
            </g>
        </g>
    </g>
</svg>